<?xml version="1.0" standalone="no"?>
 <!DOCTYPE svg PUBLIC "-//W3C//DTD SVG 1.1//EN" 
 "http://www.w3.org/Graphics/SVG/1.1/DTD/svg11.dtd"> 
<svg xmlns="http://www.w3.org/2000/svg" version="1.1" 
    width="29.7002cm" height="21.0007cm" viewBox="0 0 116930 82680 ">
<title>SVG Picture created as driver-boostcon-F.Mask.svg date 2017/04/24 04:33:29 </title>
  <desc>Picture generated by PCBNEW </desc>
<g style="fill:#000000; fill-opacity:1;stroke:#000000; stroke-opacity:1;
stroke-linecap:round; stroke-linejoin:round; "
 transform="translate(0 0) scale(1 1)">
</g>
<g style="fill:#000000; fill-opacity:0.0; 
stroke:#000000; stroke-width:-0.000393701; stroke-opacity:1; 
stroke-linecap:round; stroke-linejoin:round;">
</g>
<g style="fill:#000000; fill-opacity:0.0; 
stroke:#000000; stroke-width:150; stroke-opacity:1; 
stroke-linecap:round; stroke-linejoin:round;">
<path d="M18781 54028
L18781 22532
" />
<path d="M18781 22532
L58151 22532
" />
<path d="M58151 22532
L58151 54028
" />
<path d="M58151 54028
L18781 54028
" />
</g>
<g style="fill:#000000; fill-opacity:0.0; 
stroke:#000000; stroke-width:0; stroke-opacity:1; 
stroke-linecap:round; stroke-linejoin:round;">
</g>
<g style="fill:#000000; fill-opacity:1.0; 
stroke:#000000; stroke-width:0; stroke-opacity:1; 
stroke-linecap:round; stroke-linejoin:round;">
<polyline style="fill-rule:evenodd;"
points="47625,40919
47625,43277
45370,43277
45370,40919
47625,40919
" /> 
<polyline style="fill-rule:evenodd;"
points="43629,40919
43629,43277
41374,43277
41374,40919
43629,40919
" /> 
<polyline style="fill-rule:evenodd;"
points="45828,49671
45828,51907
43171,51907
43171,49671
45828,49671
" /> 
<polyline style="fill-rule:evenodd;"
points="30368,24369
31072,24369
31072,26338
30368,26338
30368,24369
" /> 
<polyline style="fill-rule:evenodd;"
points="28515,27031
32925,27031
32925,30889
28515,30889
28515,27031
" /> 
<polyline style="fill-rule:evenodd;"
points="29368,24369
30072,24369
30072,26338
29368,26338
29368,24369
" /> 
<polyline style="fill-rule:evenodd;"
points="31368,24369
32072,24369
32072,26338
31368,26338
31368,24369
" /> 
<polyline style="fill-rule:evenodd;"
points="43496,36801
43496,35698
44598,35698
44598,36801
43496,36801
" /> 
<circle cx="47000" cy="36250" r="551.181" /> 
</g>
<g style="fill:#000000; fill-opacity:1.0; 
stroke:#000000; stroke-width:39.3701; stroke-opacity:1; 
stroke-linecap:round; stroke-linejoin:round;">
</g>
<g style="fill:#000000; fill-opacity:1.0; 
stroke:#000000; stroke-width:0; stroke-opacity:1; 
stroke-linecap:round; stroke-linejoin:round;">
<polyline style="fill-rule:evenodd;"
points="54051,34698
54051,35801
52948,35801
52948,34698
54051,34698
" /> 
<circle cx="50547.2" cy="35250" r="551.181" /> 
</g>
<g style="fill:#000000; fill-opacity:1.0; 
stroke:#000000; stroke-width:39.3701; stroke-opacity:1; 
stroke-linecap:round; stroke-linejoin:round;">
</g>
<g style="fill:#000000; fill-opacity:1.0; 
stroke:#000000; stroke-width:0; stroke-opacity:1; 
stroke-linecap:round; stroke-linejoin:round;">
<polyline style="fill-rule:evenodd;"
points="53551,28198
53551,29301
52448,29301
52448,28198
53551,28198
" /> 
<circle cx="50047.2" cy="28750" r="551.181" /> 
</g>
<g style="fill:#000000; fill-opacity:1.0; 
stroke:#000000; stroke-width:39.3701; stroke-opacity:1; 
stroke-linecap:round; stroke-linejoin:round;">
</g>
<g style="fill:#000000; fill-opacity:1.0; 
stroke:#000000; stroke-width:0; stroke-opacity:1; 
stroke-linecap:round; stroke-linejoin:round;">
<polyline style="fill-rule:evenodd;"
points="37552,34264
37966,34264
37966,34838
37552,34838
37552,34264
" /> 
<polyline style="fill-rule:evenodd;"
points="37178,34264
37592,34264
37592,34838
37178,34838
37178,34264
" /> 
<polyline style="fill-rule:evenodd;"
points="36804,34264
37218,34264
37218,34838
36804,34838
36804,34264
" /> 
<polyline style="fill-rule:evenodd;"
points="36804,35130
37218,35130
37218,35705
36804,35705
36804,35130
" /> 
<polyline style="fill-rule:evenodd;"
points="37552,35130
37966,35130
37966,35705
37552,35705
37552,35130
" /> 
<polyline style="fill-rule:evenodd;"
points="31086,51163
31086,50336
31913,50336
31913,51163
31086,51163
" /> 
</g>
<g style="fill:#000000; fill-opacity:1.0; 
stroke:#000000; stroke-width:826.772; stroke-opacity:1; 
stroke-linecap:round; stroke-linejoin:round;">
</g>
<g style="fill:#000000; fill-opacity:0.0; 
stroke:#000000; stroke-width:826.772; stroke-opacity:1; 
stroke-linecap:round; stroke-linejoin:round;">
<path d="M31500 49750
L31500 49750
" />
<path d="M31500 48750
L31500 48750
" />
<path d="M31500 47750
L31500 47750
" />
</g>
<g style="fill:#000000; fill-opacity:1.0; 
stroke:#000000; stroke-width:0; stroke-opacity:1; 
stroke-linecap:round; stroke-linejoin:round;">
<circle cx="42000" cy="25000" r="1338.58" /> 
</g>
<g style="fill:#000000; fill-opacity:1.0; 
stroke:#000000; stroke-width:39.3701; stroke-opacity:1; 
stroke-linecap:round; stroke-linejoin:round;">
</g>
<g style="fill:#000000; fill-opacity:1.0; 
stroke:#000000; stroke-width:0; stroke-opacity:1; 
stroke-linecap:round; stroke-linejoin:round;">
<circle cx="42000" cy="30250" r="1338.58" /> 
</g>
<g style="fill:#000000; fill-opacity:1.0; 
stroke:#000000; stroke-width:39.3701; stroke-opacity:1; 
stroke-linecap:round; stroke-linejoin:round;">
</g>
<g style="fill:#000000; fill-opacity:1.0; 
stroke:#000000; stroke-width:0; stroke-opacity:1; 
stroke-linecap:round; stroke-linejoin:round;">
<circle cx="49500" cy="25000" r="1338.58" /> 
</g>
<g style="fill:#000000; fill-opacity:1.0; 
stroke:#000000; stroke-width:39.3701; stroke-opacity:1; 
stroke-linecap:round; stroke-linejoin:round;">
</g>
<g style="fill:#000000; fill-opacity:1.0; 
stroke:#000000; stroke-width:0; stroke-opacity:1; 
stroke-linecap:round; stroke-linejoin:round;">
<circle cx="45750" cy="25000" r="1338.58" /> 
</g>
<g style="fill:#000000; fill-opacity:1.0; 
stroke:#000000; stroke-width:39.3701; stroke-opacity:1; 
stroke-linecap:round; stroke-linejoin:round;">
</g>
<g style="fill:#000000; fill-opacity:1.0; 
stroke:#000000; stroke-width:0; stroke-opacity:1; 
stroke-linecap:round; stroke-linejoin:round;">
<polyline style="fill-rule:evenodd;"
points="26913,32413
26086,32413
26086,31586
26913,31586
26913,32413
" /> 
</g>
<g style="fill:#000000; fill-opacity:1.0; 
stroke:#000000; stroke-width:826.772; stroke-opacity:1; 
stroke-linecap:round; stroke-linejoin:round;">
</g>
<g style="fill:#000000; fill-opacity:0.0; 
stroke:#000000; stroke-width:826.772; stroke-opacity:1; 
stroke-linecap:round; stroke-linejoin:round;">
<path d="M26500 31000
L26500 31000
" />
<path d="M25500 32000
L25500 32000
" />
<path d="M25500 31000
L25500 31000
" />
<path d="M24500 32000
L24500 32000
" />
<path d="M24500 31000
L24500 31000
" />
</g>
<g style="fill:#000000; fill-opacity:0.0; 
stroke:#000000; stroke-width:0; stroke-opacity:1; 
stroke-linecap:round; stroke-linejoin:round;">
</g>
<g style="fill:#000000; fill-opacity:1.0; 
stroke:#000000; stroke-width:0; stroke-opacity:1; 
stroke-linecap:round; stroke-linejoin:round;">
<polyline style="fill-rule:evenodd;"
points="44521,27145
46978,27145
46978,28854
44521,28854
44521,27145
" /> 
<polyline style="fill-rule:evenodd;"
points="44521,30748
46978,30748
46978,32456
44521,32456
44521,30748
" /> 
<polyline style="fill-rule:evenodd;"
points="51685,47961
51291,47961
51291,47193
51685,47193
51685,47961
" /> 
<polyline style="fill-rule:evenodd;"
points="52185,47961
51791,47961
51791,47193
52185,47193
52185,47961
" /> 
<polyline style="fill-rule:evenodd;"
points="52685,47961
52291,47961
52291,47193
52685,47193
52685,47961
" /> 
<polyline style="fill-rule:evenodd;"
points="53185,47961
52791,47961
52791,47193
53185,47193
53185,47961
" /> 
<polyline style="fill-rule:evenodd;"
points="53185,45835
52791,45835
52791,45067
53185,45067
53185,45835
" /> 
<polyline style="fill-rule:evenodd;"
points="52685,45835
52291,45835
52291,45067
52685,45067
52685,45835
" /> 
<polyline style="fill-rule:evenodd;"
points="52185,45835
51791,45835
51791,45067
52185,45067
52185,45835
" /> 
<polyline style="fill-rule:evenodd;"
points="51685,45835
51291,45835
51291,45067
51685,45067
51685,45835
" /> 
<polyline style="fill-rule:evenodd;"
points="30946,42553
30946,42946
30179,42946
30179,42553
30946,42553
" /> 
<polyline style="fill-rule:evenodd;"
points="30946,42053
30946,42446
30179,42446
30179,42053
30946,42053
" /> 
<polyline style="fill-rule:evenodd;"
points="30946,41553
30946,41946
30179,41946
30179,41553
30946,41553
" /> 
<polyline style="fill-rule:evenodd;"
points="30946,41053
30946,41446
30179,41446
30179,41053
30946,41053
" /> 
<polyline style="fill-rule:evenodd;"
points="28820,41053
28820,41446
28053,41446
28053,41053
28820,41053
" /> 
<polyline style="fill-rule:evenodd;"
points="28820,41553
28820,41946
28053,41946
28053,41553
28820,41553
" /> 
<polyline style="fill-rule:evenodd;"
points="28820,42053
28820,42446
28053,42446
28053,42053
28820,42053
" /> 
<polyline style="fill-rule:evenodd;"
points="28820,42553
28820,42946
28053,42946
28053,42553
28820,42553
" /> 
<polyline style="fill-rule:evenodd;"
points="21775,40645
21224,40645
21224,39307
21775,39307
21775,40645
" /> 
<polyline style="fill-rule:evenodd;"
points="21775,37692
21224,37692
21224,36354
21775,36354
21775,37692
" /> 
<polyline style="fill-rule:evenodd;"
points="42196,37374
41803,37374
41803,36625
42196,36625
42196,37374
" /> 
<polyline style="fill-rule:evenodd;"
points="41696,37374
41303,37374
41303,36625
41696,36625
41696,37374
" /> 
<polyline style="fill-rule:evenodd;"
points="41196,37374
40803,37374
40803,36625
41196,36625
41196,37374
" /> 
<polyline style="fill-rule:evenodd;"
points="40696,37374
40303,37374
40303,36625
40696,36625
40696,37374
" /> 
<polyline style="fill-rule:evenodd;"
points="42196,34937
41803,34937
41803,34248
42196,34248
42196,34937
" /> 
<polyline style="fill-rule:evenodd;"
points="41196,34937
40803,34937
40803,34248
41196,34248
41196,34937
" /> 
<polyline style="fill-rule:evenodd;"
points="41696,34937
41303,34937
41303,34248
41696,34248
41696,34937
" /> 
<polyline style="fill-rule:evenodd;"
points="40696,34937
40303,34937
40303,34248
40696,34248
40696,34937
" /> 
<polyline style="fill-rule:evenodd;"
points="42196,36331
40303,36331
40303,34778
42196,34778
42196,36331
" /> 
<circle cx="39500" cy="30005.9" r="767.717" /> 
</g>
<g style="fill:#000000; fill-opacity:1.0; 
stroke:#000000; stroke-width:39.3701; stroke-opacity:1; 
stroke-linecap:round; stroke-linejoin:round;">
</g>
<g style="fill:#000000; fill-opacity:1.0; 
stroke:#000000; stroke-width:0; stroke-opacity:1; 
stroke-linecap:round; stroke-linejoin:round;">
<circle cx="39500" cy="28037.4" r="767.717" /> 
</g>
<g style="fill:#000000; fill-opacity:1.0; 
stroke:#000000; stroke-width:39.3701; stroke-opacity:1; 
stroke-linecap:round; stroke-linejoin:round;">
</g>
<g style="fill:#000000; fill-opacity:1.0; 
stroke:#000000; stroke-width:0; stroke-opacity:1; 
stroke-linecap:round; stroke-linejoin:round;">
<circle cx="39500" cy="26462.6" r="767.717" /> 
</g>
<g style="fill:#000000; fill-opacity:1.0; 
stroke:#000000; stroke-width:39.3701; stroke-opacity:1; 
stroke-linecap:round; stroke-linejoin:round;">
</g>
<g style="fill:#000000; fill-opacity:1.0; 
stroke:#000000; stroke-width:0; stroke-opacity:1; 
stroke-linecap:round; stroke-linejoin:round;">
<circle cx="39500" cy="24494.1" r="767.717" /> 
</g>
<g style="fill:#000000; fill-opacity:1.0; 
stroke:#000000; stroke-width:39.3701; stroke-opacity:1; 
stroke-linecap:round; stroke-linejoin:round;">
</g>
<g style="fill:#000000; fill-opacity:1.0; 
stroke:#000000; stroke-width:0; stroke-opacity:1; 
stroke-linecap:round; stroke-linejoin:round;">
<polyline style="fill-rule:evenodd;"
points="39972,30084
39027,30084
39027,27958
39972,27958
39972,30084
" /> 
<polyline style="fill-rule:evenodd;"
points="39972,26541
39027,26541
39027,24415
39972,24415
39972,26541
" /> 
<polyline style="fill-rule:evenodd;"
points="47279,39832
47279,39419
47854,39419
47854,39832
47279,39832
" /> 
<polyline style="fill-rule:evenodd;"
points="47279,40206
47279,39793
47854,39793
47854,40206
47279,40206
" /> 
<polyline style="fill-rule:evenodd;"
points="47279,40580
47279,40167
47854,40167
47854,40580
47279,40580
" /> 
<polyline style="fill-rule:evenodd;"
points="48145,40580
48145,40167
48720,40167
48720,40580
48145,40580
" /> 
<polyline style="fill-rule:evenodd;"
points="48145,39832
48145,39419
48720,39419
48720,39832
48145,39832
" /> 
<polyline style="fill-rule:evenodd;"
points="37663,27163
36836,27163
36836,26336
37663,26336
37663,27163
" /> 
</g>
<g style="fill:#000000; fill-opacity:1.0; 
stroke:#000000; stroke-width:826.772; stroke-opacity:1; 
stroke-linecap:round; stroke-linejoin:round;">
</g>
<g style="fill:#000000; fill-opacity:0.0; 
stroke:#000000; stroke-width:826.772; stroke-opacity:1; 
stroke-linecap:round; stroke-linejoin:round;">
<path d="M36250 26750
L36250 26750
" />
</g>
<g style="fill:#000000; fill-opacity:0.0; 
stroke:#000000; stroke-width:0; stroke-opacity:1; 
stroke-linecap:round; stroke-linejoin:round;">
</g>
<g style="fill:#000000; fill-opacity:1.0; 
stroke:#000000; stroke-width:0; stroke-opacity:1; 
stroke-linecap:round; stroke-linejoin:round;">
<polyline style="fill-rule:evenodd;"
points="23606,47393
23606,46606
24393,46606
24393,47393
23606,47393
" /> 
</g>
<g style="fill:#000000; fill-opacity:1.0; 
stroke:#000000; stroke-width:787.402; stroke-opacity:1; 
stroke-linecap:round; stroke-linejoin:round;">
</g>
<g style="fill:#000000; fill-opacity:0.0; 
stroke:#000000; stroke-width:787.402; stroke-opacity:1; 
stroke-linecap:round; stroke-linejoin:round;">
<path d="M27000 34000
L27000 34000
" />
<path d="M24000 46000
L24000 46000
" />
<path d="M27000 35000
L27000 35000
" />
<path d="M24000 45000
L24000 45000
" />
<path d="M27000 36000
L27000 36000
" />
<path d="M24000 44000
L24000 44000
" />
<path d="M27000 37000
L27000 37000
" />
<path d="M24000 43000
L24000 43000
" />
<path d="M27000 38000
L27000 38000
" />
<path d="M24000 42000
L24000 42000
" />
<path d="M27000 39000
L27000 39000
" />
<path d="M24000 41000
L24000 41000
" />
<path d="M27000 40000
L27000 40000
" />
<path d="M24000 40000
L24000 40000
" />
<path d="M27000 41000
L27000 41000
" />
<path d="M24000 39000
L24000 39000
" />
<path d="M27000 42000
L27000 42000
" />
<path d="M24000 38000
L24000 38000
" />
<path d="M27000 43000
L27000 43000
" />
<path d="M24000 37000
L24000 37000
" />
<path d="M27000 44000
L27000 44000
" />
<path d="M24000 36000
L24000 36000
" />
<path d="M27000 45000
L27000 45000
" />
<path d="M24000 35000
L24000 35000
" />
<path d="M27000 46000
L27000 46000
" />
<path d="M24000 34000
L24000 34000
" />
<path d="M27000 47000
L27000 47000
" />
</g>
<g style="fill:#000000; fill-opacity:0.0; 
stroke:#000000; stroke-width:0; stroke-opacity:1; 
stroke-linecap:round; stroke-linejoin:round;">
</g>
<g style="fill:#000000; fill-opacity:1.0; 
stroke:#000000; stroke-width:0; stroke-opacity:1; 
stroke-linecap:round; stroke-linejoin:round;">
<polyline style="fill-rule:evenodd;"
points="35143,28704
34356,28704
34356,27169
35143,27169
35143,28704
" /> 
<polyline style="fill-rule:evenodd;"
points="35143,30830
34356,30830
34356,29295
35143,29295
35143,30830
" /> 
<circle cx="20750" cy="52059" r="767.74" /> 
</g>
<g style="fill:#000000; fill-opacity:1.0; 
stroke:#000000; stroke-width:39.3701; stroke-opacity:1; 
stroke-linecap:round; stroke-linejoin:round;">
</g>
<g style="fill:#000000; fill-opacity:1.0; 
stroke:#000000; stroke-width:0; stroke-opacity:1; 
stroke-linecap:round; stroke-linejoin:round;">
<circle cx="20750" cy="24500" r="767.74" /> 
</g>
<g style="fill:#000000; fill-opacity:1.0; 
stroke:#000000; stroke-width:39.3701; stroke-opacity:1; 
stroke-linecap:round; stroke-linejoin:round;">
</g>
<g style="fill:#000000; fill-opacity:1.0; 
stroke:#000000; stroke-width:0; stroke-opacity:1; 
stroke-linecap:round; stroke-linejoin:round;">
<circle cx="56183" cy="24500" r="767.74" /> 
</g>
<g style="fill:#000000; fill-opacity:1.0; 
stroke:#000000; stroke-width:39.3701; stroke-opacity:1; 
stroke-linecap:round; stroke-linejoin:round;">
</g>
<g style="fill:#000000; fill-opacity:1.0; 
stroke:#000000; stroke-width:0; stroke-opacity:1; 
stroke-linecap:round; stroke-linejoin:round;">
<circle cx="56183" cy="52059" r="767.74" /> 
</g>
<g style="fill:#000000; fill-opacity:1.0; 
stroke:#000000; stroke-width:39.3701; stroke-opacity:1; 
stroke-linecap:round; stroke-linejoin:round;">
</g>
<g style="fill:#000000; fill-opacity:1.0; 
stroke:#000000; stroke-width:0; stroke-opacity:1; 
stroke-linecap:round; stroke-linejoin:round;">
<polyline style="fill-rule:evenodd;"
points="51003,40785
51003,42714
48996,42714
48996,40785
51003,40785
" /> 
<polyline style="fill-rule:evenodd;"
points="51003,42557
51003,42911
50570,42911
50570,42557
51003,42557
" /> 
<polyline style="fill-rule:evenodd;"
points="50472,42557
50472,42911
50039,42911
50039,42557
50472,42557
" /> 
<polyline style="fill-rule:evenodd;"
points="49527,42911
49527,42557
49960,42557
49960,42911
49527,42911
" /> 
<polyline style="fill-rule:evenodd;"
points="49429,42557
49429,42911
48996,42911
48996,42557
49429,42557
" /> 
<polyline style="fill-rule:evenodd;"
points="50956,39958
50956,40588
50543,40588
50543,39958
50956,39958
" /> 
<polyline style="fill-rule:evenodd;"
points="50456,39958
50456,40588
50043,40588
50043,39958
50456,39958
" /> 
<polyline style="fill-rule:evenodd;"
points="49956,39958
49956,40588
49543,40588
49543,39958
49956,39958
" /> 
<polyline style="fill-rule:evenodd;"
points="49456,39958
49456,40588
49043,40588
49043,39958
49456,39958
" /> 
<polyline style="fill-rule:evenodd;"
points="50958,40194
50958,40588
49541,40588
49541,40194
50958,40194
" /> 
<polyline style="fill-rule:evenodd;"
points="51003,40785
51003,42714
48996,42714
48996,40785
51003,40785
" /> 
<polyline style="fill-rule:evenodd;"
points="55972,36015
55972,36960
55027,36960
55027,36015
55972,36015
" /> 
<circle cx="53500" cy="36488.2" r="472.441" /> 
</g>
<g style="fill:#000000; fill-opacity:1.0; 
stroke:#000000; stroke-width:39.3701; stroke-opacity:1; 
stroke-linecap:round; stroke-linejoin:round;">
</g>
<g style="fill:#000000; fill-opacity:1.0; 
stroke:#000000; stroke-width:0; stroke-opacity:1; 
stroke-linecap:round; stroke-linejoin:round;">
<polyline style="fill-rule:evenodd;"
points="56547,39362
56547,44637
52452,44637
52452,39362
56547,39362
" /> 
<circle cx="54500" cy="43220.5" r="1259.84" /> 
</g>
<g style="fill:#000000; fill-opacity:1.0; 
stroke:#000000; stroke-width:39.3701; stroke-opacity:1; 
stroke-linecap:round; stroke-linejoin:round;">
</g>
<g style="fill:#000000; fill-opacity:1.0; 
stroke:#000000; stroke-width:0; stroke-opacity:1; 
stroke-linecap:round; stroke-linejoin:round;">
<polyline style="fill-rule:evenodd;"
points="37218,33976
37218,33523
37690,33523
37690,33976
37218,33976
" /> 
<polyline style="fill-rule:evenodd;"
points="37809,33976
37809,33523
38281,33523
38281,33976
37809,33976
" /> 
<polyline style="fill-rule:evenodd;"
points="32494,25170
32946,25170
32946,25643
32494,25643
32494,25170
" /> 
<polyline style="fill-rule:evenodd;"
points="32494,25761
32946,25761
32946,26233
32494,26233
32494,25761
" /> 
<polyline style="fill-rule:evenodd;"
points="46976,40031
46523,40031
46523,39559
46976,39559
46976,40031
" /> 
<polyline style="fill-rule:evenodd;"
points="46976,39440
46523,39440
46523,38968
46976,38968
46976,39440
" /> 
<polyline style="fill-rule:evenodd;"
points="28781,38773
28781,39226
28309,39226
28309,38773
28781,38773
" /> 
<polyline style="fill-rule:evenodd;"
points="28190,38773
28190,39226
27718,39226
27718,38773
28190,38773
" /> 
<polyline style="fill-rule:evenodd;"
points="28781,39773
28781,40226
28309,40226
28309,39773
28781,39773
" /> 
<polyline style="fill-rule:evenodd;"
points="28190,39773
28190,40226
27718,40226
27718,39773
28190,39773
" /> 
<polyline style="fill-rule:evenodd;"
points="20023,38718
20476,38718
20476,39190
20023,39190
20023,38718
" /> 
<polyline style="fill-rule:evenodd;"
points="20023,39309
20476,39309
20476,39781
20023,39781
20023,39309
" /> 
<polyline style="fill-rule:evenodd;"
points="20476,38281
20023,38281
20023,37809
20476,37809
20476,38281
" /> 
<polyline style="fill-rule:evenodd;"
points="20476,37690
20023,37690
20023,37218
20476,37218
20476,37690
" /> 
<polyline style="fill-rule:evenodd;"
points="31226,46781
30773,46781
30773,46309
31226,46309
31226,46781
" /> 
<polyline style="fill-rule:evenodd;"
points="31226,46190
30773,46190
30773,45718
31226,45718
31226,46190
" /> 
<polyline style="fill-rule:evenodd;"
points="53523,45968
53976,45968
53976,46440
53523,46440
53523,45968
" /> 
<polyline style="fill-rule:evenodd;"
points="53523,46559
53976,46559
53976,47031
53523,47031
53523,46559
" /> 
<polyline style="fill-rule:evenodd;"
points="23226,41281
22773,41281
22773,40809
23226,40809
23226,41281
" /> 
<polyline style="fill-rule:evenodd;"
points="23226,40690
22773,40690
22773,40218
23226,40218
23226,40690
" /> 
<polyline style="fill-rule:evenodd;"
points="51781,39023
51781,39476
51309,39476
51309,39023
51781,39023
" /> 
<polyline style="fill-rule:evenodd;"
points="51190,39023
51190,39476
50718,39476
50718,39023
51190,39023
" /> 
<polyline style="fill-rule:evenodd;"
points="25226,40531
24773,40531
24773,40059
25226,40059
25226,40531
" /> 
<polyline style="fill-rule:evenodd;"
points="25226,39940
24773,39940
24773,39468
25226,39468
25226,39940
" /> 
<polyline style="fill-rule:evenodd;"
points="26226,40531
25773,40531
25773,40059
26226,40059
26226,40531
" /> 
<polyline style="fill-rule:evenodd;"
points="26226,39940
25773,39940
25773,39468
26226,39468
26226,39940
" /> 
<polyline style="fill-rule:evenodd;"
points="22218,47226
22218,46773
22690,46773
22690,47226
22218,47226
" /> 
<polyline style="fill-rule:evenodd;"
points="22809,47226
22809,46773
23281,46773
23281,47226
22809,47226
" /> 
<polyline style="fill-rule:evenodd;"
points="25468,47226
25468,46773
25940,46773
25940,47226
25468,47226
" /> 
<polyline style="fill-rule:evenodd;"
points="26059,47226
26059,46773
26531,46773
26531,47226
26059,47226
" /> 
<polyline style="fill-rule:evenodd;"
points="25468,46226
25468,45773
25940,45773
25940,46226
25468,46226
" /> 
<polyline style="fill-rule:evenodd;"
points="26059,46226
26059,45773
26531,45773
26531,46226
26059,46226
" /> 
<polyline style="fill-rule:evenodd;"
points="28726,45281
28273,45281
28273,44809
28726,44809
28726,45281
" /> 
<polyline style="fill-rule:evenodd;"
points="28726,44690
28273,44690
28273,44218
28726,44218
28726,44690
" /> 
<polyline style="fill-rule:evenodd;"
points="28218,43976
28218,43523
28690,43523
28690,43976
28218,43976
" /> 
<polyline style="fill-rule:evenodd;"
points="28809,43976
28809,43523
29281,43523
29281,43976
28809,43976
" /> 
<polyline style="fill-rule:evenodd;"
points="32876,38079
32876,38532
32403,38532
32403,38079
32876,38079
" /> 
<polyline style="fill-rule:evenodd;"
points="32285,38079
32285,38532
31813,38532
31813,38079
32285,38079
" /> 
<polyline style="fill-rule:evenodd;"
points="31813,39282
31813,38829
32285,38829
32285,39282
31813,39282
" /> 
<polyline style="fill-rule:evenodd;"
points="32403,39282
32403,38829
32876,38829
32876,39282
32403,39282
" /> 
<polyline style="fill-rule:evenodd;"
points="31273,41968
31726,41968
31726,42440
31273,42440
31273,41968
" /> 
<polyline style="fill-rule:evenodd;"
points="31273,42559
31726,42559
31726,43031
31273,43031
31273,42559
" /> 
<polyline style="fill-rule:evenodd;"
points="29773,39718
30226,39718
30226,40190
29773,40190
29773,39718
" /> 
<polyline style="fill-rule:evenodd;"
points="29773,40309
30226,40309
30226,40781
29773,40781
29773,40309
" /> 
<polyline style="fill-rule:evenodd;"
points="29468,48976
29468,48523
29940,48523
29940,48976
29468,48976
" /> 
<polyline style="fill-rule:evenodd;"
points="30059,48976
30059,48523
30531,48523
30531,48976
30059,48976
" /> 
<polyline style="fill-rule:evenodd;"
points="24675,24580
25324,24580
25324,25131
24675,25131
24675,24580
" /> 
<polyline style="fill-rule:evenodd;"
points="24675,25368
25324,25368
25324,25919
24675,25919
24675,25368
" /> 
<polyline style="fill-rule:evenodd;"
points="25675,24580
26324,24580
26324,25131
25675,25131
25675,24580
" /> 
<polyline style="fill-rule:evenodd;"
points="25675,25368
26324,25368
26324,25919
25675,25919
25675,25368
" /> 
<polyline style="fill-rule:evenodd;"
points="40425,40080
41074,40080
41074,40631
40425,40631
40425,40080
" /> 
<polyline style="fill-rule:evenodd;"
points="40425,40868
41074,40868
41074,41419
40425,41419
40425,40868
" /> 
<polyline style="fill-rule:evenodd;"
points="51824,41169
51175,41169
51175,40618
51824,40618
51824,41169
" /> 
<polyline style="fill-rule:evenodd;"
points="51824,40381
51175,40381
51175,39830
51824,39830
51824,40381
" /> 
<polyline style="fill-rule:evenodd;"
points="52775,36175
52775,36824
52224,36824
52224,36175
52775,36175
" /> 
<polyline style="fill-rule:evenodd;"
points="51988,36175
51988,36824
51437,36824
51437,36175
51988,36175
" /> 
<polyline style="fill-rule:evenodd;"
points="45830,38824
45830,38175
46381,38175
46381,38824
45830,38824
" /> 
<polyline style="fill-rule:evenodd;"
points="46618,38824
46618,38175
47169,38175
47169,38824
46618,38824
" /> 
<polyline style="fill-rule:evenodd;"
points="37080,33309
37080,32659
37631,32659
37631,33309
37080,33309
" /> 
<polyline style="fill-rule:evenodd;"
points="37868,33309
37868,32659
38419,32659
38419,33309
37868,33309
" /> 
<polyline style="fill-rule:evenodd;"
points="29080,46074
29080,45425
29631,45425
29631,46074
29080,46074
" /> 
<polyline style="fill-rule:evenodd;"
points="29868,46074
29868,45425
30419,45425
30419,46074
29868,46074
" /> 
<polyline style="fill-rule:evenodd;"
points="32425,41080
33074,41080
33074,41631
32425,41631
32425,41080
" /> 
<polyline style="fill-rule:evenodd;"
points="32425,41868
33074,41868
33074,42419
32425,42419
32425,41868
" /> 
<polyline style="fill-rule:evenodd;"
points="32419,39925
32419,40574
31868,40574
31868,39925
32419,39925
" /> 
<polyline style="fill-rule:evenodd;"
points="31631,39925
31631,40574
31080,40574
31080,39925
31631,39925
" /> 
<polyline style="fill-rule:evenodd;"
points="29925,43330
30574,43330
30574,43881
29925,43881
29925,43330
" /> 
<polyline style="fill-rule:evenodd;"
points="29925,44118
30574,44118
30574,44669
29925,44669
29925,44118
" /> 
<polyline style="fill-rule:evenodd;"
points="28580,48074
28580,47425
29131,47425
29131,48074
28580,48074
" /> 
<polyline style="fill-rule:evenodd;"
points="29368,48074
29368,47425
29919,47425
29919,48074
29368,48074
" /> 
<polyline style="fill-rule:evenodd;"
points="33039,44015
33669,44015
33669,44960
33039,44960
33039,44015
" /> 
<polyline style="fill-rule:evenodd;"
points="32330,44015
32960,44015
32960,44960
32330,44960
32330,44015
" /> 
<polyline style="fill-rule:evenodd;"
points="33039,45039
33669,45039
33669,45984
33039,45984
33039,45039
" /> 
<polyline style="fill-rule:evenodd;"
points="32330,45039
32960,45039
32960,45984
32330,45984
32330,45039
" /> 
</g> 
</svg>
